Coordinates
version=1
nRows=14
nColumns=36
inDegrees=yes

Units are S.I. units (second, meters, Newtons, ...)
If the header above contains a line with 'inDegrees', this indicates whether rotational values are in degrees (yes) or radians (no).

endheader
time	pelvis_tilt	pelvis_list	pelvis_rotation	pelvis_tx	pelvis_ty	pelvis_tz	hip_flexion_r	hip_adduction_r	hip_rotation_r	knee_angle_r	knee_angle_r_beta	ankle_angle_r	subtalar_angle_r	mtp_angle_r	hip_flexion_l	hip_adduction_l	hip_rotation_l	knee_angle_l	knee_angle_l_beta	ankle_angle_l	subtalar_angle_l	mtp_angle_l	lumbar_extension	lumbar_bending	lumbar_rotation	arm_flex_r	arm_add_r	arm_rot_r	elbow_flex_r	pro_sup_r	arm_flex_l	arm_add_l	arm_rot_l	elbow_flex_l	pro_sup_l
      0.60000000	     -6.01950204	      1.93378656	     -4.45567569	      0.70063534	      0.86536878	     -0.16615870	     -3.06929624	     -2.49512485	      0.85649979	     42.92548005	      0.74919096	     -2.65908200	     -4.38402476	     -7.49779382	     31.41000056	      2.24048238	     -1.51861507	     22.74629096	      0.39699767	      1.28745534	     -4.35455215	     -7.49779382	      2.73505191	     -2.45801499	     10.10226713	      5.92242932	    -10.82479257	     -9.32218274	     27.47413711	     91.35467674	     -5.18838368	    -13.61774359	    -19.13555492	      7.38032713	    102.05178040
      0.61000000	     -5.71081000	      2.13397298	     -4.21579202	      0.71616635	      0.86690453	     -0.16659895	     -1.36556812	     -2.90507546	      0.57558053	     46.62351606	      0.81373386	     -5.99494569	     -5.28959480	     -7.49791655	     30.23132152	      2.65287544	     -1.48168745	     23.18922416	      0.40472831	      2.05433891	     -4.42696766	     -7.49791655	      2.53235737	     -2.74555899	      9.57627547	      5.46070671	    -10.43785764	     -9.63832114	     26.38785542	     91.25405444	     -4.96573835	    -13.54186608	    -18.60861974	      7.55284344	    101.99113867
      0.62000000	     -5.38730917	      2.36047132	     -3.96517909	      0.73184474	      0.86841146	     -0.16723252	      0.38359305	     -3.32305964	      0.27935397	     50.12794790	      0.87489774	     -8.75807132	     -6.03420537	     -7.49801251	     28.90778930	      3.10039584	     -1.43387339	     23.37542265	      0.40797809	      2.82295990	     -4.44456646	     -7.49801251	      2.23904733	     -3.08838753	      8.97106888	      4.76746411	    -10.09586439	     -9.78551032	     25.93852427	     90.88119181	     -4.91882139	    -13.44045129	    -18.27767356	      8.18509903	    101.47940668
      0.63000000	     -5.08791980	      2.39610339	     -3.80926112	      0.74734809	      0.86986834	     -0.16800899	      2.26891268	     -3.43761893	      0.15175169	     53.37767985	      0.93161626	    -11.06524811	     -6.97372640	     -7.49807238	     27.55313934	      3.29996025	     -1.41317081	     23.45638213	      0.40939110	      3.65752953	     -4.39182785	     -7.49807238	      1.99329677	     -3.16478498	      8.45662342	      4.33079444	     -9.82699073	    -10.00183272	     24.87860336	     90.90972080	     -4.61274258	    -13.25766954	    -17.81781639	      8.25539985	    101.59933213
      0.64000000	     -4.94019225	      2.28256288	     -3.63297900	      0.76291408	      0.87113544	     -0.16908712	      4.40087468	     -3.32922424	     -0.02888930	     56.28484297	      0.98235583	    -12.51057039	     -7.66211843	     -7.49851819	     26.30577458	      3.33568204	     -1.38173160	     23.46946157	      0.40961938	      4.66895992	     -4.10498022	     -7.49851819	      1.97833724	     -2.99594260	      8.11037983	      3.81565153	     -9.57336579	    -11.20024309	     23.61215601	     93.95941454	     -4.26199664	    -13.21628790	    -15.05874133	      8.33084549	    104.09521615
      0.65000000	     -4.65493099	      2.10647035	     -3.47226685	      0.77842981	      0.87264802	     -0.17035081	      6.50585008	     -3.07821360	     -0.21923127	     58.74512632	      1.02529587	    -13.08827820	     -8.51205789	     -7.49856077	     24.75142898	      3.33038116	     -1.27106737	     23.19058036	      0.40475198	      5.52174011	     -4.03334604	     -7.49856077	      1.63853985	     -2.76650128	      7.47731059	      3.19657251	     -9.44429913	    -11.31205145	     23.18954613	     93.67854973	     -4.11735003	    -12.88743739	    -14.96839254	      8.83228373	    103.63590143
      0.66000000	     -4.43861441	      1.66829250	     -3.24486550	      0.79382768	      0.87428254	     -0.17200492	      8.80447359	     -2.49105348	     -0.57101075	     60.57272359	      1.05719346	    -12.64604710	     -9.21507995	     -7.49859317	     23.12900032	      3.09086117	     -0.97454869	     22.67770014	      0.39580053	      6.27833176	     -3.87646470	     -7.49859317	      1.32716047	     -2.14329360	      6.82022928	      2.47134968	     -9.51478345	    -11.36364131	     23.05940177	     93.30115242	     -3.96661282	    -12.36695343	    -14.85205518	      9.51205155	    103.11729127
      0.67000000	     -4.64590918	      1.25564756	     -3.16956262	      0.80895001	      0.87529779	     -0.17309037	     11.88300853	     -1.73449232	     -0.78021002	     61.92446586	      1.08078582	    -11.33000241	    -10.68463210	     -7.49865737	     21.97466115	      2.65715336	     -1.24512048	     22.23274193	      0.38803455	      7.35537870	     -2.98421238	     -7.49865737	      1.68259240	     -1.57506420	      5.92280585	      2.55305336	     -9.32315962	    -11.55479095	     20.84311205	     93.34185191	     -4.03357084	    -12.05681528	    -14.17708778	      9.89671366	    103.02205673
      0.68000000	     -4.73718027	      0.72583501	     -2.92184086	      0.82384182	      0.87655927	     -0.17446014	     14.86981341	     -0.90024626	     -1.29956064	     62.33382225	      1.08793043	     -8.63180917	    -11.62797313	     -7.49871607	     20.56406821	      2.22479574	     -1.13641990	     21.53264534	      0.37581556	      8.20337857	     -2.45589522	     -7.49871607	      1.70011832	     -0.83224874	      4.93308391	      2.14762192	     -9.36165726	    -11.48299542	     20.14113043	     93.14836778	     -4.04497068	    -11.61102578	    -13.60250370	     10.71934991	    102.59943742
      0.69000000	     -4.80090807	      0.18254648	     -2.69400678	      0.83838459	      0.87797153	     -0.17546768	     17.76382572	      0.02631423	     -1.78031332	     61.65786017	      1.07613267	     -5.38242358	    -13.03195576	     -7.49874395	     19.03349789	      1.77173144	     -0.96950014	     20.65987095	      0.36058277	      8.75957340	     -2.18851433	     -7.49874395	      1.61072152	     -0.08143789	      4.15764941	      1.47063295	     -9.46022349	    -11.46364635	     20.00095718	     92.85268391	     -3.78652782	    -11.13653157	    -13.38015026	     11.44712411	    102.17401859
      0.70000000	     -5.19752796	     -0.35364283	     -2.26989982	      0.85262324	      0.87887286	     -0.17642348	     20.76223718	      0.76759186	     -2.55932527	     60.03299733	      1.04777346	     -0.83387182	    -12.93381223	     -7.49886656	     17.97229353	      1.29406775	     -0.97538088	     19.98543642	      0.34881167	      9.70571945	     -1.22464750	     -7.49886656	      2.10857577	      0.67952407	      2.56759309	      1.74454085	     -9.50750942	    -10.62786400	     17.93024123	     93.17500450	     -4.10903241	    -10.90765147	    -11.21350800	     12.57492456	    101.92476554
      0.71000000	     -5.43865963	     -0.80648988	     -1.82879083	      0.86630481	      0.88005264	     -0.17699573	     23.10407899	      1.39200025	     -3.18421024	     57.43321769	      1.00239875	      3.10446014	    -12.81137989	     -7.49890016	     16.75272589	      0.94256384	     -0.79383578	     19.27685324	      0.33644456	     10.35583305	     -0.69840172	     -7.49890016	      2.34937130	      1.28729444	      1.63635048	      1.06000977	     -9.60141768	    -10.53017385	     17.71472375	     92.95705516	     -3.74876171	    -10.55247989	    -10.77718181	     13.38990842	    101.53649570
      0.72000000	     -5.53476057	     -1.04299074	     -1.34422420	      0.87929982	      0.88138839	     -0.17728084	     24.77071928	      1.64638756	     -3.73099940	     54.38886474	      0.94926477	      6.31467890	    -11.99416360	     -7.49899624	     15.45714593	      0.82346118	     -0.64962756	     18.65509785	      0.32559288	     11.02521493	     -0.13028155	     -7.49899624	      2.52839794	      1.61179275	      0.24044301	      1.10109308	     -9.57413567	     -9.91369724	     16.32395726	     93.06698454	     -3.63942669	    -10.53424384	     -8.59015411	     14.45690573	    101.18216124
      0.73000000	     -5.58640030	     -1.18033129	     -0.81962243	      0.89155472	      0.88272859	     -0.17746530	     25.85282562	      1.68974947	     -4.17806876	     51.24485757	      0.89439149	      8.14063501	    -11.15264197	     -7.49902860	     14.24694435	      0.83788325	     -0.35524164	     18.19861138	      0.31762569	     11.65384211	      0.17629662	     -7.49902860	      2.73408871	      1.77447465	     -0.71495867	      0.55330482	     -9.57269895	     -9.78761816	     15.88659254	     92.98930245	     -3.04648122	    -10.40608368	     -7.81587580	     15.17023744	    100.95740267
